# xmcd CD database file
#
# Track frame offsets:
#	150
#	21877
#	30442
#	50222
#	55562
#
# Disc length: 1140 seconds
#
# Revision: 0
# Processed by: cddbd v1.5.1PL0 Copyright (c) Steve Scherf et al.
# Submitted via: CDex 1.51
#
DISCID=37047205
DTITLE=the PeteBest - July
DYEAR=1998
DGENRE=Rock
TTITLE0=July
TTITLE1=no fun
TTITLE2=outer marker
TTITLE3=Sunny Day
TTITLE4=Dream World
EXTD=YEAR: 1998
EXTT0=
EXTT1=
EXTT2=
EXTT3=
EXTT4=
PLAYORDER=
